<svg width="38" height="36" viewBox="0 0 38 36" fill="none" xmlns="http://www.w3.org/2000/svg">
<path d="M25.3644 12.7144L25.3618 12.7142C24.9192 12.6748 24.4957 12.5153 24.1371 12.2529C23.7786 11.9906 23.4984 11.6354 23.3269 11.2257C23.3268 11.2255 23.3268 11.2254 23.3267 11.2252L19.1458 1.26177C19.1115 1.18452 19.0556 1.11875 18.9849 1.07232C18.913 1.02514 18.8289 1 18.7429 1C18.657 1 18.5729 1.02514 18.501 1.07232C18.4303 1.11874 18.3744 1.18449 18.3401 1.26172L14.1592 11.2252C14.1591 11.2254 14.1591 11.2255 14.159 11.2257C13.9874 11.6354 13.7073 11.9906 13.3488 12.2529L12.7583 11.4458L13.3488 12.2529C12.9902 12.5153 12.5667 12.6748 12.1241 12.7142L12.1215 12.7145L1.41162 13.6403L1.40562 13.6408L1.40562 13.6408C1.31866 13.6477 1.23573 13.6804 1.16732 13.7345C1.09891 13.7886 1.04809 13.8619 1.02131 13.9449C0.994516 14.0279 0.992956 14.117 1.01682 14.2009C1.04069 14.2848 1.08891 14.3598 1.15538 14.4163L1.16517 14.4246L1.16512 14.4247L9.29026 21.5123L9.29287 21.5146C9.62606 21.8073 9.87376 22.1847 10.0097 22.6069C10.1455 23.029 10.1646 23.48 10.0648 23.9121C10.0647 23.9121 10.0647 23.9122 10.0647 23.9122L7.62956 34.4562L7.62897 34.4587C7.60928 34.543 7.61482 34.6312 7.6449 34.7123L6.70727 35.06L7.6449 34.7123C7.67499 34.7935 7.72828 34.864 7.79816 34.915C7.86804 34.9661 7.9514 34.9955 8.03784 34.9995C8.12342 35.0035 8.2083 34.9825 8.28211 34.939C8.28285 34.9386 8.28359 34.9381 8.28433 34.9377L17.4813 29.3583L25.3644 12.7144ZM25.3644 12.7144L36.0743 13.6403L36.0803 13.6408M25.3644 12.7144L36.0803 13.6408M36.0803 13.6408C36.1672 13.6477 36.2502 13.6804 36.3186 13.7345C36.387 13.7886 36.4378 13.8619 36.4646 13.9449C36.4914 14.0279 36.4929 14.117 36.4691 14.2009C36.4452 14.2848 36.397 14.3598 36.3305 14.4163L36.3305 14.4162M36.0803 13.6408L36.3305 14.4162M36.3305 14.4162L36.3208 14.4247M36.3305 14.4162L36.3208 14.4247M36.3208 14.4247L28.1956 21.5123L28.193 21.5146M36.3208 14.4247L28.193 21.5146M28.193 21.5146C27.8598 21.8073 27.6121 22.1847 27.4762 22.6069C27.3403 23.029 27.3213 23.4801 27.4212 23.9122L29.8563 34.4562L29.8569 34.4587M28.193 21.5146L29.8569 34.4587M29.8569 34.4587C29.8766 34.543 29.8711 34.6312 29.841 34.7123M29.8569 34.4587L29.841 34.7123M29.841 34.7123C29.8109 34.7935 29.7576 34.864 29.6877 34.9151M29.841 34.7123L29.6877 34.9151M29.6877 34.9151C29.6179 34.9661 29.5345 34.9955 29.4481 34.9995M29.6877 34.9151L29.4481 34.9995M29.4481 34.9995C29.3625 35.0035 29.2776 34.9825 29.2038 34.939M29.4481 34.9995L29.2038 34.939M29.2038 34.939C29.203 34.9386 29.2023 34.9381 29.2016 34.9377M29.2038 34.939L29.2016 34.9377M29.2016 34.9377L20.0046 29.3583L29.2016 34.9377ZM18.7429 29.0048C19.1876 29.0048 19.6237 29.1269 20.0037 29.3577L18.7429 29.0048ZM18.7429 29.0048C18.2983 29.0048 17.8622 29.1269 17.4822 29.3577L18.7429 29.0048Z" stroke="white" stroke-width="2" stroke-linecap="round" stroke-linejoin="round"/>
</svg>
